Coordinates
version=1
nRows=13
nColumns=40
inDegrees=yes

Units are S.I. units (second, meters, Newtons, ...)
Angles are in degrees.

endheader
time	pelvis_tilt	pelvis_list	pelvis_rotation	pelvis_tx	pelvis_ty	pelvis_tz	hip_flexion_r	hip_adduction_r	hip_rotation_r	knee_angle_r	knee_angle_r_beta	ankle_angle_r	subtalar_angle_r	mtp_angle_r	hip_flexion_l	hip_adduction_l	hip_rotation_l	knee_angle_l	knee_angle_l_beta	ankle_angle_l	subtalar_angle_l	mtp_angle_l	lumbar_extension	lumbar_bending	lumbar_rotation	arm_flex_r	arm_add_r	arm_rot_r	elbow_flex_r	pro_sup_r	wrist_flex_r	wrist_dev_r	arm_flex_l	arm_add_l	arm_rot_l	elbow_flex_l	pro_sup_l	wrist_flex_l	wrist_dev_l
     49.07300000	     -5.47431527	     -4.72286550	     -5.40635454	      1.02291657	      0.93014098	      0.41893772	     23.69744672	     -0.94242303	    -10.44507891	     11.32345989	     11.32345989	      1.17154432	      7.95174615	      4.94838301	      5.56487404	     -7.01618988	    -13.25838776	     15.38904807	     15.38904807	     14.91384812	     -9.41525004	     -3.38185466	     -9.32608700	      5.22631220	      2.27179342	    -11.96057024	    -11.27381975	     -3.43294847	     26.67168776	     46.08219581	      0.00000000	      0.00000000	     28.57410466	    -22.69831370	     -7.94602473	     66.68541361	     47.01672925	      0.00000000	      0.00000000
     49.08600000	     -5.43605993	     -4.79827003	     -5.42938425	      1.02391871	      0.92948614	      0.42118542	     23.12227925	     -0.48793620	    -11.16211493	     10.55926790	     10.55926790	      1.06546330	      8.47598298	      5.19312635	      4.93176670	     -7.17552859	    -13.25724088	     15.16061627	     15.16061627	     15.23172812	     -9.34435582	     -3.38214567	     -9.31537027	      5.38544501	      2.31418561	    -11.66427882	    -11.33654499	     -3.41549594	     26.71913642	     46.08389320	      0.00000000	      0.00000000	     28.17438799	    -22.44985854	     -8.02515813	     66.96893947	     47.02805831	      0.00000000	      0.00000000
     49.09900000	     -5.49816776	     -4.75393217	     -5.42603024	      1.02498802	      0.92857245	      0.42344577	     22.87626175	     -0.22699030	    -11.58834872	     10.56036278	     10.56036278	      1.16336401	      8.36928940	      5.10845536	      4.49238967	     -7.23118057	    -13.24846984	     15.06886026	     15.06886026	     15.53182211	     -9.34452764	     -3.40997411	     -9.11698862	      5.40820862	      2.37935772	    -11.21766190	    -11.32693340	     -3.40374252	     26.86960295	     46.08128664	      0.00000000	      0.00000000	     27.80877029	    -22.09279281	     -7.94984132	     66.99189402	     47.02141245	      0.00000000	      0.00000000
     49.11200000	     -5.49144656	     -4.80325636	     -5.34046858	      1.02636628	      0.92779115	      0.42580332	     22.48433044	      0.06294828	    -12.02671970	     10.77096895	     10.77096895	      1.32233570	      8.12951820	      4.87550096	      3.93719425	     -7.38568774	    -13.18429003	     14.92459345	     14.92459345	     15.86108905	     -9.29546940	     -3.38874808	     -8.95349102	      5.56483061	      2.42653979	    -10.70604141	    -11.36613788	     -3.39990107	     27.04589836	     46.07881918	      0.00000000	      0.00000000	     27.29206578	    -21.64504203	     -7.83927558	     66.95741192	     47.01010656	      0.00000000	      0.00000000
     49.12500000	     -5.27213387	     -4.77114911	     -5.28648760	      1.02815469	      0.92725093	      0.42828314	     22.01452625	      0.20573198	    -12.23294824	     11.46707127	     11.46707127	      1.40190965	      7.44675550	      3.40141550	      2.98734070	     -7.41699206	    -13.31859297	     14.54546262	     14.54546262	     16.41421110	     -8.81646001	     -2.73387051	     -9.02679966	      5.60525439	      2.13031490	     -9.96185282	    -11.48436235	     -3.38135060	     27.30103231	     46.07691446	      0.00000000	      0.00000000	     26.41596906	    -21.56498600	     -8.12072812	     67.15183689	     47.03429559	      0.00000000	      0.00000000
     49.13800000	     -5.17493905	     -4.79948075	     -5.09681657	      1.03002877	      0.92639857	      0.43085284	     21.46039477	      0.45526339	    -12.10324516	     11.75396886	     11.75396886	      0.19295978	      5.99333855	     -1.47936077	      2.56306499	     -7.66997596	    -13.40946795	     14.98176651	     14.98176651	     17.93892498	     -7.93818534	     -0.35449323	     -8.87829400	      5.72571430	      1.59276681	     -8.88765390	    -11.59621036	     -2.87027486	     27.19880227	     46.07078981	      0.00000000	      0.00000000	     25.03898589	    -21.25142891	     -8.96991414	     67.92340232	     47.13294325	      0.00000000	      0.00000000
     49.15100000	     -5.06378354	     -4.89092422	     -4.90038918	      1.03196731	      0.92577513	      0.43338447	     20.95045540	      0.64706916	    -12.31496548	     12.32615883	     12.32615883	      0.68606908	      5.55631554	     -1.79435463	      2.00560935	     -7.91601557	    -13.21607553	     15.07123618	     15.07123618	     18.22474637	     -7.97023048	     -0.38380333	     -8.74928591	      5.95047478	      1.72063344	     -8.17236679	    -11.61395230	     -2.86023653	     27.45665945	     46.06602873	      0.00000000	      0.00000000	     24.34249272	    -20.57790333	     -8.71030698	     67.66755304	     47.10568181	      0.00000000	      0.00000000
     49.16400000	     -4.84668320	     -4.91868243	     -4.70490971	      1.03387093	      0.92513595	      0.43617512	     20.80979890	      0.79195128	    -11.64292291	     13.70468345	     13.70468345	      0.89073832	      3.35892832	     -3.65891166	      1.56645187	     -8.19107212	    -13.19371396	     15.66197108	     15.66197108	     19.15653158	     -7.67022473	      0.98337121	     -8.72893654	      6.08616535	      1.46124432	     -7.18671291	    -11.76780046	     -2.68703362	     27.74622685	     46.05990051	      0.00000000	      0.00000000	     23.55014610	    -20.33253062	     -8.69112351	     66.91241761	     47.10536313	      0.00000000	      0.00000000
     49.17700000	     -4.66183103	     -4.96369322	     -4.46520905	      1.03599853	      0.92488012	      0.43888950	     20.26487546	      0.89912701	    -11.73968688	     14.27863745	     14.27863745	      1.54380253	      3.01529171	     -4.01212390	      1.07062743	     -8.44339939	    -12.99404889	     15.99404986	     15.99404986	     19.30414464	     -7.75049702	      0.96852768	     -8.68939164	      6.22921176	      1.68606262	     -6.35250626	    -11.80770929	     -2.68864239	     28.04314681	     46.05534618	      0.00000000	      0.00000000	     22.68629712	    -19.56844002	     -8.40861817	     66.58389226	     47.07362579	      0.00000000	      0.00000000
     49.19000000	     -4.35051767	     -4.98864659	     -4.23361029	      1.03789492	      0.92457449	      0.44171178	     20.18988666	      0.89832062	    -11.49660286	     15.89781955	     15.89781955	      2.30366313	      1.88542370	     -4.70864238	      0.88602997	     -8.79754569	    -12.75681111	     17.17834270	     17.17834270	     19.59895053	     -8.06081820	      1.10133621	     -8.76452742	      6.39198823	      1.45841984	     -5.20943046	    -11.97748339	     -2.74169878	     28.46377872	     46.05358622	      0.00000000	      0.00000000	     21.82197505	    -19.32813772	     -8.29036400	     65.74239445	     47.04900334	      0.00000000	      0.00000000
     49.20300000	     -4.02068385	     -4.98565618	     -4.02963571	      1.03995035	      0.92485895	      0.44461064	     19.65013935	      0.95696870	    -11.35732712	     16.60998980	     16.60998980	      2.97717219	      1.37271593	     -5.06546907	      0.66419997	     -9.11706701	    -12.54145193	     18.31234351	     18.31234351	     19.57729027	     -8.41323034	      1.11220276	     -8.88186947	      6.46848736	      1.61322194	     -4.10998479	    -12.08894717	     -2.76736280	     28.82634264	     46.05076489	      0.00000000	      0.00000000	     20.79088248	    -18.59067928	     -8.03568099	     65.11927904	     47.01413555	      0.00000000	      0.00000000
     49.21600000	     -3.94594004	     -4.98645757	     -3.72606371	      1.04153189	      0.92472905	      0.44753072	     19.57583203	      1.02499408	    -11.08107946	     17.56481532	     17.56481532	      3.64719017	      0.38673209	     -5.37280203	      1.33728699	     -9.60958035	    -12.03719551	     20.50833017	     20.50833017	     19.61992840	     -9.07050231	      1.04331869	     -8.68172210	      6.58569133	      1.35210829	     -2.73530087	    -12.13242494	     -2.81084886	     29.19909116	     46.05237915	      0.00000000	      0.00000000	     19.80099373	    -18.23823878	     -7.98455326	     63.83909685	     46.98790364	      0.00000000	      0.00000000
     49.22900000	     -3.69213456	     -4.96059998	     -3.45879770	      1.04320225	      0.92524149	      0.45044409	     19.09415493	      1.08184546	    -10.95732497	     18.09921982	     18.09921982	      4.31635735	     -0.07670256	     -5.50567900	      1.87328194	    -10.05830350	    -11.54249663	     22.79051108	     22.79051108	     19.30014052	     -9.83992381	      0.82784441	     -8.72673180	      6.65772345	      1.35164810	     -1.33471408	    -12.21031672	     -2.83690649	     29.49991790	     46.05592053	      0.00000000	      0.00000000	     18.80910493	    -17.61200945	     -7.89358118	     62.59706875	     46.95907579	      0.00000000	      0.00000000
